HIERARCHY
ROOT Hips
{
	OFFSET 0.000000 0.000000 0.000000
	CHANNELS 6 Xposition Yposition Zposition Zrotation Yrotation Xrotation 
	JOINT LHipJoint
	{
		OFFSET 0.000000 0.000000 0.000000
		CHANNELS 3 Zrotation Yrotation Xrotation
		JOINT LeftUpLeg
		{
			OFFSET 1.363060 -1.794630 0.839290
			CHANNELS 3 Zrotation Yrotation Xrotation
			JOINT LeftLeg
			{
				OFFSET 2.448110 -6.726130 0.000000
				CHANNELS 3 Zrotation Yrotation Xrotation
				JOINT LeftFoot
				{
					OFFSET 2.562200 -7.039590 0.000000
					CHANNELS 3 Zrotation Yrotation Xrotation
					JOINT LeftToeBase
					{
						OFFSET 0.157640 -0.433110 2.322550
						CHANNELS 3 Zrotation Yrotation Xrotation
						End Site
						{
							OFFSET 0.000000 0.000000 0.000000
						}
					}
				}
			}
		}
	}
	JOINT RHipJoint
	{
		OFFSET 0.000000 0.000000 0.000000
		CHANNELS 3 Zrotation Yrotation Xrotation
		JOINT RightUpLeg
		{
			OFFSET -1.305520 -1.794630 0.839290
			CHANNELS 3 Zrotation Yrotation Xrotation
			JOINT RightLeg
			{
				OFFSET -2.542530 -6.985550 0.000000
				CHANNELS 3 Zrotation Yrotation Xrotation
				JOINT RightFoot
				{
					OFFSET -2.568260 -7.056230 0.000000
					CHANNELS 3 Zrotation Yrotation Xrotation
					JOINT RightToeBase
					{
						OFFSET -0.164730 -0.452590 2.363150
						CHANNELS 3 Zrotation Yrotation Xrotation
						End Site
						{
							OFFSET 0.000000 0.000000 0.000000
						}
					}
				}
			}
		}
	}
	JOINT LowerBack
	{
		OFFSET 0.000000 0.000000 0.000000
		CHANNELS 3 Zrotation Yrotation Xrotation
		JOINT Spine
		{
			OFFSET 0.028270 2.035590 -0.193380
			CHANNELS 3 Zrotation Yrotation Xrotation
			JOINT Spine1
			{
				OFFSET 0.056720 2.048850 -0.042750
				CHANNELS 3 Zrotation Yrotation Xrotation
				JOINT Neck
				{
					OFFSET 0.000000 0.000000 0.000000
					CHANNELS 3 Zrotation Yrotation Xrotation
					JOINT Neck1
					{
						OFFSET -0.054170 1.746240 0.172020
						CHANNELS 3 Zrotation Yrotation Xrotation
						JOINT Head
						{
							OFFSET 0.104070 1.761360 -0.123970
							CHANNELS 3 Zrotation Yrotation Xrotation
							End Site
							{
								OFFSET 0.000000 0.000000 0.000000
							}
						}
					}
				}
				JOINT LeftShoulder
				{
					OFFSET 0.000000 0.000000 0.000000
					CHANNELS 3 Zrotation Yrotation Xrotation
					JOINT LeftArm
					{
						OFFSET 3.362410 1.200890 -0.311210
						CHANNELS 3 Zrotation Yrotation Xrotation
						JOINT LeftForeArm
						{
							OFFSET 4.983000 -0.000000 -0.000000
							CHANNELS 3 Zrotation Yrotation Xrotation
							JOINT LeftHand
							{
								OFFSET 3.483560 -0.000000 -0.000000
								CHANNELS 3 Zrotation Yrotation Xrotation
								JOINT LeftFingerBase
								{
									OFFSET 0.000000 0.000000 0.000000
									CHANNELS 3 Zrotation Yrotation Xrotation
									JOINT LeftHandIndex1
									{
										OFFSET 0.715260 -0.000000 -0.000000
										CHANNELS 3 Zrotation Yrotation Xrotation
										End Site
										{
											OFFSET 0.000000 0.000000 0.000000
										}
									}
								}
								JOINT LThumb
								{
									OFFSET 0.000000 0.000000 0.000000
									CHANNELS 3 Zrotation Yrotation Xrotation
									End Site
									{
										OFFSET 0.000000 0.000000 0.000000
									}
								}
							}
						}
					}
				}
				JOINT RightShoulder
				{
					OFFSET 0.000000 0.000000 0.000000
					CHANNELS 3 Zrotation Yrotation Xrotation
					JOINT RightArm
					{
						OFFSET -3.136600 1.374050 -0.404650
						CHANNELS 3 Zrotation Yrotation Xrotation
						JOINT RightForeArm
						{
							OFFSET -5.241900 -0.000000 -0.000000
							CHANNELS 3 Zrotation Yrotation Xrotation
							JOINT RightHand
							{
								OFFSET -3.444170 -0.000000 -0.000000
								CHANNELS 3 Zrotation Yrotation Xrotation
								JOINT RightFingerBase
								{
									OFFSET 0.000000 0.000000 0.000000
									CHANNELS 3 Zrotation Yrotation Xrotation
									JOINT RightHandIndex1
									{
										OFFSET -0.622530 -0.000000 -0.000000
										CHANNELS 3 Zrotation Yrotation Xrotation
										End Site
										{
											OFFSET 0.000000 0.000000 0.000000
										}
									}
								}
								JOINT RThumb
								{
									OFFSET 0.000000 0.000000 0.000000
									CHANNELS 3 Zrotation Yrotation Xrotation
									End Site
									{
										OFFSET 0.000000 0.000000 0.000000
									}
								}
							}
						}
					}
				}
			}
		}
	}
}
MOTION
Frames: 12
Frame Time: 0.008333
-11.908662 16.879604 -1.933474 148.722044 87.261312 165.511568 -11.082464 2.803253 -1.588027 -4.326713 3.605066 1.943700 -1.360055 0.978266 17.581150 0.485889 2.602403 2.536843 0.463000 0.000001 -77.165000 8.312110 0.308691 2.068198 6.712250 5.786734 -39.421928 2.100964 -0.317828 12.643643 -1.114547 -6.249462 5.708132 -2.425500 0.000000 -22.824600 5.876990 -3.799815 1.196171 0.267514 -4.196742 -2.201381 -7.846981 -4.137060 2.095782 10.809919 -9.324550 -6.258044 -4.261097 -0.325681 0.262780 0.000000 0.000000 0.000000 -0.409749 4.377854 3.049880 -34.830209 -13.455948 6.329635 -1.917099 -66.428364 0.033416 -14.312583 1.688534 -0.195580 0.020377 0.127167 0.000000 0.000000 0.000000 0.000000 0.000000 0.000000 0.000000 20.367108 -9.012663 0.585254 63.958763 -4.038295 -8.638808 3.760797 29.946266 0.016016 7.521621 7.935354 0.523034 0.054458 -0.058954 -0.000000 0.000000 0.000000 0.000000 0.000000 0.000000 0.000000 
-11.731225 16.897065 -1.908355 157.341141 87.479421 174.188068 -11.136241 2.887265 -1.537359 -3.688820 3.456164 1.372308 -1.206775 1.164288 19.203885 0.526221 2.680666 4.117079 0.518601 -0.000000 -79.444200 8.316774 0.291047 2.027320 7.212714 6.144242 -39.290637 2.091946 -0.415288 13.755401 -1.155027 -6.394400 5.340824 -2.417800 -0.000001 -22.122900 6.548534 -3.696518 1.149173 0.390510 -4.132895 -2.233300 -7.836296 -4.076279 2.057297 10.813473 -9.115328 -6.249798 -4.290107 -0.327773 0.264940 0.000000 0.000000 0.000000 -0.645413 4.512654 3.038241 -35.820523 -12.629698 6.490125 -2.003806 -65.809445 0.031452 -14.311544 1.725153 -0.200931 0.011100 0.119917 0.000000 0.000000 0.000000 0.000000 0.000000 0.000000 0.000000 20.432389 -8.769552 0.595685 63.766045 -3.487616 -8.515090 3.793835 29.566618 0.016002 7.506889 7.879413 0.518332 0.055117 -0.058694 -0.000000 0.000000 0.000000 0.000000 0.000000 0.000000 0.000000 
-11.555709 16.916414 -1.880725 164.658285 87.695210 -178.438344 -11.235562 2.987370 -1.491244 -3.114850 3.397799 0.647232 -1.055567 1.360032 21.004374 0.582245 2.741371 5.884217 0.567200 0.000001 -81.153200 8.288883 0.287406 1.974424 7.698743 6.467624 -39.090781 2.087088 -0.486365 14.800130 -1.191071 -6.501788 4.780180 -2.377100 0.000000 -21.415600 7.078924 -3.585515 1.118146 0.481640 -4.054532 -2.262567 -7.820076 -4.000932 2.019228 10.839238 -8.882219 -6.227254 -4.315914 -0.329725 0.270765 0.000000 0.000000 0.000000 -0.823189 4.642654 3.015915 -36.847868 -11.754018 6.633086 -2.093429 -65.107645 0.029372 -14.311655 1.760443 -0.206186 0.002171 0.112238 0.000000 0.000000 0.000000 0.000000 0.000000 0.000000 0.000000 20.508767 -8.499570 0.606992 63.585693 -2.876226 -8.331910 3.826058 29.156675 0.015977 7.509669 7.817346 0.514431 0.055585 -0.058459 -0.000000 0.000000 0.000000 0.000000 0.000000 0.000000 0.000000 
-11.382320 16.937358 -1.850453 170.573746 87.875527 -172.467701 -11.375110 3.079012 -1.450658 -2.604463 3.419184 -0.228956 -0.899532 1.552162 22.979705 0.656218 2.795640 7.811660 0.608400 0.000000 -82.107800 8.224947 0.278031 1.920609 8.155940 6.748472 -38.816646 2.086262 -0.533396 15.735243 -1.229299 -6.595368 4.061279 -2.312000 0.000000 -20.691500 7.469125 -3.484671 1.093725 0.546077 -3.978902 -2.289783 -7.797607 -3.928563 1.984121 10.887599 -8.628518 -6.189861 -4.338312 -0.331551 0.280534 0.000000 0.000000 0.000000 -0.943284 4.760209 2.986881 -37.897979 -10.839779 6.766809 -2.186064 -64.324480 0.027208 -14.317288 1.794193 -0.211348 -0.006384 0.104220 0.000000 0.000000 0.000000 0.000000 0.000000 0.000000 0.000000 20.596440 -8.214920 0.616760 63.421162 -2.206749 -8.096729 3.856786 28.719779 0.015934 7.535378 7.752802 0.511929 0.055783 -0.058204 -0.000000 0.000000 0.000000 0.000000 0.000000 0.000000 0.000000 
-11.211181 16.959586 -1.817592 175.176643 88.006601 -167.808783 -11.535079 3.145813 -1.416065 -2.153660 3.504856 -1.247480 -0.737048 1.730221 25.116327 0.750320 2.870630 9.842704 0.647699 0.000000 -82.152500 8.138332 0.254848 1.874480 8.581854 6.983633 -38.466211 2.090758 -0.558834 16.522120 -1.273672 -6.690573 3.229279 -2.230300 -0.000000 -19.956500 7.743397 -3.401798 1.067661 0.591068 -3.914768 -2.315699 -7.769853 -3.868089 1.953283 10.956000 -8.358181 -6.138184 -4.357181 -0.333261 0.294219 0.000000 0.000000 0.000000 -1.010249 4.863120 2.954329 -38.956796 -9.898736 6.900787 -2.281691 -63.462395 0.024986 -14.331338 1.826800 -0.216516 -0.014558 0.095959 0.000000 0.000000 0.000000 0.000000 0.000000 0.000000 0.000000 20.692038 -7.923856 0.623433 63.275002 -1.483188 -7.815872 3.885845 28.263689 0.015876 7.586306 7.690774 0.511228 0.055698 -0.057933 -0.000000 0.000000 0.000000 0.000000 0.000000 0.000000 0.000000 
-11.042413 16.982847 -1.782469 178.673857 88.091669 -164.253475 -11.697321 3.180893 -1.387063 -1.758665 3.639353 -2.395720 -0.572061 1.888717 27.391832 0.865451 3.005540 11.895510 0.698400 -0.000000 -81.184900 8.043863 0.218369 1.839899 8.981506 7.173594 -38.039022 2.102267 -0.563799 17.132208 -1.324623 -6.793187 2.332989 -2.138000 0.000000 -19.208900 7.930357 -3.336058 1.035232 0.622293 -3.862822 -2.341029 -7.738722 -3.820196 1.926367 11.039198 -8.068386 -6.072486 -4.372646 -0.334869 0.311813 0.000000 0.000000 0.000000 -1.034400 4.957167 2.921285 -40.007276 -8.949961 7.049043 -2.380591 -62.522167 0.022729 -14.355960 1.859745 -0.221988 -0.022408 0.087536 0.000000 0.000000 0.000000 0.000000 0.000000 0.000000 0.000000 20.789374 -7.622389 0.626352 63.152075 -0.721687 -7.510096 3.913095 27.808860 0.015809 7.670611 7.628943 0.512927 0.055291 -0.057666 -0.000000 0.000000 0.000000 0.000000 0.000000 0.000000 0.000000 
-10.876168 17.006916 -1.745378 -178.859073 88.136086 -161.726626 -11.845559 3.182521 -1.363840 -1.428242 3.803115 -3.651011 -0.410815 2.025563 29.775248 1.000235 3.253788 13.870339 0.785100 0.000000 -79.176101 7.955624 0.172271 1.816453 9.352763 7.311698 -37.538677 2.121210 -0.550478 17.553909 -1.379076 -6.894221 1.418517 -2.037800 -0.000000 -18.480200 8.046050 -3.284762 0.997058 0.642554 -3.821088 -2.365093 -7.704236 -3.782826 1.904407 11.133055 -7.782457 -5.998034 -4.384056 -0.336302 0.331969 0.000000 0.000000 0.000000 -1.017203 5.030941 2.886702 -41.048166 -7.986984 7.210715 -2.481224 -61.513872 0.020434 -14.395087 1.896306 -0.228166 -0.029762 0.078929 0.000000 0.000000 0.000000 0.000000 0.000000 0.000000 0.000000 20.884387 -7.333966 0.626744 63.047506 0.096354 -7.146384 3.938613 27.354013 0.015768 7.768662 7.583083 0.516426 0.054731 -0.057526 -0.000000 0.000000 0.000000 0.000000 0.000000 0.000000 0.000000 
-10.712435 17.031687 -1.706975 -177.106935 88.153140 -159.914121 -11.977193 3.154087 -1.346360 -1.155402 3.989162 -4.997578 -0.260302 2.143964 32.238460 1.150608 3.658360 15.662459 0.933300 0.000000 -76.225000 7.876135 0.120129 1.802292 9.705643 7.400972 -36.965205 2.148922 -0.518503 17.778335 -1.433231 -6.987868 0.529845 -1.934500 0.000000 -17.766400 8.113392 -3.241296 0.954202 0.654816 -3.784384 -2.388654 -7.668613 -3.750728 1.884008 11.228766 -7.475196 -5.911817 -4.392037 -0.337606 0.355407 0.000000 0.000000 0.000000 -0.979795 5.104648 2.855371 -42.054906 -7.047279 7.410932 -2.585043 -60.432518 0.018108 -14.445404 1.938002 -0.235150 -0.036908 0.070257 0.000000 0.000000 0.000000 0.000000 0.000000 0.000000 0.000000 20.966243 -7.026246 0.624273 62.970492 0.920159 -6.782602 3.961181 26.947493 0.015734 7.901078 7.535915 0.522125 0.053839 -0.057498 -0.000000 0.000000 0.000000 0.000000 0.000000 0.000000 0.000000 
-10.551342 17.057024 -1.667692 -175.989235 88.148672 -158.740800 -12.086768 3.099231 -1.336755 -0.947140 4.185165 -6.408525 -0.124520 2.248331 34.746859 1.311423 4.263919 17.179044 1.171100 0.000001 -72.524700 7.810292 0.065094 1.792786 10.038252 7.434724 -36.322025 2.184826 -0.470692 17.814907 -1.481695 -7.057502 -0.298143 -1.830300 0.000000 -17.099900 8.139972 -3.202059 0.913879 0.660179 -3.749142 -2.409952 -7.630876 -3.720225 1.866070 11.321635 -7.172533 -5.820493 -4.395840 -0.338674 0.380293 0.000000 0.000000 0.000000 -0.925668 5.167484 2.825478 -43.029324 -6.125802 7.647921 -2.690302 -59.289035 0.015740 -14.508163 1.988598 -0.243637 -0.043698 0.061488 0.000000 0.000000 0.000000 0.000000 0.000000 0.000000 0.000000 21.030832 -6.724368 0.620769 62.912332 1.770475 -6.376265 3.980418 26.590287 0.015734 8.042042 7.502510 0.529225 0.052798 -0.057707 -0.000000 0.000000 0.000000 0.000000 0.000000 0.000000 0.000000 
-10.392873 17.082885 -1.628018 -175.345475 88.129670 -158.051056 -12.174712 3.023014 -1.336904 -0.801734 4.384995 -7.860953 -0.004694 2.344685 37.268057 1.477795 5.095952 18.350953 1.516100 -0.000000 -68.364300 7.758063 0.009132 1.783581 10.352831 7.412439 -35.611500 2.228399 -0.409239 17.677275 -1.520014 -7.091742 -1.039099 -1.728000 -0.000001 -16.496300 8.135664 -3.162823 0.882683 0.659989 -3.711402 -2.428031 -7.591094 -3.687285 1.849496 11.406180 -6.878104 -5.726814 -4.395461 -0.339468 0.405779 0.000000 0.000000 0.000000 -0.865587 5.222079 2.797867 -43.963880 -5.235411 7.929951 -2.796553 -58.087811 0.013323 -14.580426 2.050533 -0.253732 -0.050194 0.052660 0.000000 0.000000 0.000000 0.000000 0.000000 0.000000 0.000000 21.073022 -6.428607 0.617213 62.869598 2.637140 -5.922862 3.995277 26.304223 0.015777 8.182773 7.482621 0.537327 0.051632 -0.058199 -0.000000 0.000000 0.000000 0.000000 0.000000 0.000000 0.000000 
-10.236987 17.109277 -1.588393 -175.024570 88.101700 -157.698097 -12.243481 2.930296 -1.347248 -0.715753 4.581853 -9.335557 0.100739 2.438361 39.770102 1.646606 6.161154 19.142967 1.971700 -0.000001 -64.118800 7.717694 -0.046797 1.771302 10.651478 7.336919 -34.837754 2.278754 -0.336565 17.384665 -1.544910 -7.083027 -1.675946 -1.630800 0.000000 -15.960800 8.109733 -3.119796 0.864697 0.655435 -3.667750 -2.443680 -7.550210 -3.648599 1.828680 11.476566 -6.566982 -5.625774 -4.391727 -0.340075 0.433115 0.000000 0.000000 0.000000 -0.810684 5.273531 2.776137 -44.849353 -4.388588 8.270401 -2.904137 -56.832170 0.010865 -14.657390 2.124897 -0.265731 -0.056592 0.043864 0.000000 0.000000 0.000000 0.000000 0.000000 0.000000 0.000000 21.085183 -6.108593 0.614099 62.846088 3.469202 -5.468437 4.003891 26.133619 0.015829 8.335814 7.459088 0.545829 0.050171 -0.058938 -0.000000 0.000000 0.000000 0.000000 0.000000 0.000000 0.000000 
-10.083648 17.136149 -1.549009 -174.983052 88.070049 -157.643411 -12.292816 2.825075 -1.369635 -0.689727 4.770095 -10.810446 0.194675 2.533082 42.223254 1.815719 7.442824 19.543422 2.523500 -0.000000 -60.052200 7.690220 -0.101310 1.751991 10.931077 7.210718 -34.005126 2.333876 -0.256358 16.963783 -1.554185 -7.025040 -2.202879 -1.539900 0.000000 -15.508800 8.063731 -3.070815 0.867189 0.646925 -3.615670 -2.454797 -7.507046 -3.601510 1.806218 11.531575 -6.268672 -5.525733 -4.384136 -0.340387 0.459968 0.000000 0.000000 0.000000 -0.762845 5.315883 2.757418 -45.689799 -3.581256 8.663400 -3.011066 -55.533489 0.008351 -14.736617 2.213467 -0.279637 -0.062759 0.035079 0.000000 0.000000 0.000000 0.000000 0.000000 0.000000 0.000000 21.069307 -5.794187 0.612783 62.827074 4.297493 -4.956825 4.006113 26.069539 0.015917 8.471759 7.446223 0.554032 0.048621 -0.060011 -0.000000 0.000000 0.000000 0.000000 0.000000 0.000000 0.000000 
